# xmcd
#
# Track frame offsets:
#	150
#	14550
#	25650
#	39900
#	56550
#	72122
#	84821
#	99221
#	114521
#	127721
#
# Disc length: 1894 seconds
#
# Revision: 0
# Processed by: cddbd v1.5.2PL0 Copyright (c) Steve Scherf et al.
# Submitted via: FairStars CD Ripper 1.52
#
DISCID=6807640a
DTITLE=Various Artist - Comic Songs from Singing Islanders
DYEAR=2011
DGENRE=Comedy
TTITLE0=Lauri Say - U.D.I for the IoW
TTITLE1=Lauri Say - The Hovercraft Song
TTITLE2=Lauri Say - The Southern Vectis Song
TTITLE3=Lauri Say - The Isle of Wight for Me
TTITLE4=Toni Malo - Cowes Week
TTITLE5=Toni Malo - The Ferry to the Isle of Wight
TTITLE6=Robin Holbrook - The Grotty Yotty Song
TTITLE7=Chris Mackett - The Spinnaker Rap
TTITLE8=Robin Holbrook - The Friendly Isle
TTITLE9=Robin Holbrook - The Isle of Wight Lies There Waiting for You
EXTD=
EXTT0=Originally released as an ep in 1968
EXTT1=Originally released as an ep in 1968
EXTT2=Originally released as an ep in 1968
EXTT3=Originally released as an ep in 1968
EXTT4=Originally released as a single in 1976
EXTT5=Originally released as a single in 1976
EXTT6=Originally released as a single in 1984
EXTT7=Originally released as a single in 1984
EXTT8=Originally released as a single in 1991
EXTT9=Originally released as a single in 1991
PLAYORDER=
